<?xml version="1.0" encoding="iso-8859-1"?>
<!-- Generator: Adobe Illustrator 19.0.0, SVG Export Plug-In . SVG Version: 6.00 Build 0)  -->
<svg version="1.1" id="Layer_1" xmlns="http://www.w3.org/2000/svg" xmlns:xlink="http://www.w3.org/1999/xlink" x="0px" y="0px"
	 viewBox="0 0 512.01 512.01" style="enable-background:new 0 0 512.01 512.01;" xml:space="preserve">
<path style="fill:#FF5B62;" d="M256,512.005c140.998,0,256-114.998,256-256s-114.998-256-256-256S0,115.003,0,256.005
	C0,397.003,114.998,512.005,256,512.005z"/>
<path style="fill:#21D0C3;" d="M74.903,59.809h306.802v396.766c0,12.124-9.917,22.045-22.041,22.045H97.424
	c-12.392,0-22.526-10.138-22.526-22.521V59.809H74.903z"/>
<path style="fill:#ECF0F1;" d="M87.821,54.067h262.974c24.105,0,43.827,19.722,43.827,43.827v331.152
	c0,24.105-19.722,43.827-43.827,43.827H109.866c-12.124,0-22.041-9.921-22.041-22.045V54.063L87.821,54.067z"/>
<path style="fill:#FFFFFF;" d="M87.821,50.012h262.974c24.105,0,43.827,19.722,43.827,43.827v331.152
	c0,24.105-19.722,43.832-43.827,43.832H109.866c-12.124,0-22.041-9.922-22.041-22.045V50.012H87.821z"/>
<path style="fill:#ECF0F1;" d="M87.821,28.96h251.903c23.094,0,41.985,18.891,41.985,41.985v334.842
	c0,23.094-18.891,41.985-41.985,41.985H87.821V28.96z"/>
<path style="fill:#21D0C3;" d="M74.903,24.41h262.974c24.105,0,43.827,19.722,43.827,43.827V399.39
	c0,24.105-19.722,43.832-43.827,43.832H74.903V24.41z"/>
<path style="fill:#FAD24D;" d="M74.903,24.41h56.704v418.812H74.903V24.41z"/>
<path style="fill:#EDB937;" d="M102.67,44.105c6.282,0,11.367,5.09,11.367,11.367c0,6.273-5.085,11.362-11.367,11.362
	c-6.273,0-11.362-5.09-11.362-11.362C91.309,49.195,96.399,44.105,102.67,44.105z"/>
<path style="fill:#FFFFFF;" d="M68.616,52.155h31.177c2.162,0,3.926,1.765,3.926,3.926c0,2.162-1.765,3.926-3.926,3.926H68.616
	c-2.157,0-3.926-1.765-3.926-3.926C64.69,53.92,66.455,52.155,68.616,52.155z"/>
<path style="fill:#EDB937;" d="M102.67,78.367c6.282,0,11.367,5.085,11.367,11.367c0,6.277-5.085,11.367-11.367,11.367
	c-6.273,0-11.362-5.09-11.362-11.367S96.399,78.367,102.67,78.367z"/>
<path style="fill:#FFFFFF;" d="M68.616,86.417h31.177c2.162,0,3.926,1.765,3.926,3.926c0,2.162-1.765,3.926-3.926,3.926H68.616
	c-2.157,0-3.926-1.765-3.926-3.926C64.691,88.182,66.455,86.417,68.616,86.417z"/>
<path style="fill:#EDB937;" d="M102.67,112.624c6.282,0,11.367,5.09,11.367,11.367c0,6.277-5.085,11.367-11.367,11.367
	c-6.273,0-11.362-5.09-11.362-11.367C91.309,117.714,96.399,112.624,102.67,112.624z"/>
<path style="fill:#FFFFFF;" d="M68.616,120.679h31.177c2.162,0,3.926,1.765,3.926,3.926s-1.765,3.926-3.926,3.926H68.616
	c-2.157,0-3.926-1.765-3.926-3.926S66.455,120.679,68.616,120.679z"/>
<path style="fill:#EDB937;" d="M102.67,146.882c6.282,0,11.367,5.094,11.367,11.367c0,6.277-5.085,11.367-11.367,11.367
	c-6.273,0-11.362-5.09-11.362-11.367C91.309,151.972,96.399,146.882,102.67,146.882z"/>
<path style="fill:#FFFFFF;" d="M68.616,154.937h31.177c2.162,0,3.926,1.765,3.926,3.926c0,2.162-1.765,3.926-3.926,3.926H68.616
	c-2.157,0-3.926-1.765-3.926-3.926C64.691,156.701,66.455,154.937,68.616,154.937z"/>
<path style="fill:#EDB937;" d="M102.67,181.144c6.282,0,11.367,5.09,11.367,11.367c0,6.277-5.085,11.367-11.367,11.367
	c-6.273,0-11.362-5.09-11.362-11.367C91.309,186.234,96.399,181.144,102.67,181.144z"/>
<path style="fill:#FFFFFF;" d="M68.616,189.199h31.177c2.162,0,3.926,1.765,3.926,3.926s-1.765,3.926-3.926,3.926H68.616
	c-2.157,0-3.926-1.765-3.926-3.926C64.691,190.963,66.455,189.199,68.616,189.199z"/>
<path style="fill:#EDB937;" d="M102.67,215.406c6.282,0,11.367,5.09,11.367,11.367c0,6.277-5.085,11.367-11.367,11.367
	c-6.273,0-11.362-5.09-11.362-11.367C91.309,220.496,96.399,215.406,102.67,215.406z"/>
<path style="fill:#FFFFFF;" d="M68.616,223.457h31.177c2.162,0,3.926,1.765,3.926,3.926s-1.765,3.926-3.926,3.926H68.616
	c-2.157,0-3.926-1.765-3.926-3.926S66.455,223.457,68.616,223.457z"/>
<path style="fill:#EDB937;" d="M102.67,249.663c6.282,0,11.367,5.09,11.367,11.367c0,6.273-5.085,11.362-11.367,11.362
	c-6.273,0-11.362-5.09-11.362-11.362C91.309,254.753,96.399,249.663,102.67,249.663z"/>
<path style="fill:#FFFFFF;" d="M68.616,257.719h31.177c2.162,0,3.926,1.765,3.926,3.926c0,2.162-1.765,3.926-3.926,3.926H68.616
	c-2.157,0-3.926-1.765-3.926-3.926C64.69,259.483,66.455,257.719,68.616,257.719z"/>
<path style="fill:#EDB937;" d="M102.67,283.925c6.282,0,11.367,5.085,11.367,11.362c0,6.277-5.085,11.367-11.367,11.367
	c-6.273,0-11.362-5.09-11.362-11.367C91.309,289.011,96.399,283.925,102.67,283.925z"/>
<path style="fill:#FFFFFF;" d="M68.616,291.976h31.177c2.162,0,3.926,1.765,3.926,3.926c0,2.162-1.765,3.926-3.926,3.926H68.616
	c-2.157,0-3.926-1.765-3.926-3.926C64.69,293.74,66.455,291.976,68.616,291.976z"/>
<path style="fill:#EDB937;" d="M102.67,318.183c6.282,0,11.367,5.09,11.367,11.367s-5.085,11.367-11.367,11.367
	c-6.273,0-11.362-5.094-11.362-11.367C91.309,323.273,96.399,318.183,102.67,318.183z"/>
<path style="fill:#FFFFFF;" d="M68.616,326.238h31.177c2.162,0,3.926,1.765,3.926,3.926c0,2.162-1.765,3.926-3.926,3.926H68.616
	c-2.157,0-3.926-1.765-3.926-3.926C64.69,328.002,66.455,326.238,68.616,326.238z"/>
<path style="fill:#EDB937;" d="M102.67,352.441c6.282,0,11.367,5.094,11.367,11.367c0,6.277-5.085,11.367-11.367,11.367
	c-6.273,0-11.362-5.094-11.362-11.367C91.309,357.531,96.399,352.441,102.67,352.441z"/>
<path style="fill:#FFFFFF;" d="M68.616,360.5h31.177c2.162,0,3.926,1.765,3.926,3.926c0,2.162-1.765,3.926-3.926,3.926H68.616
	c-2.157,0-3.926-1.765-3.926-3.926C64.691,362.264,66.455,360.5,68.616,360.5z"/>
<path style="fill:#EDB937;" d="M102.67,386.703c6.282,0,11.367,5.09,11.367,11.367c0,6.277-5.085,11.367-11.367,11.367
	c-6.273,0-11.362-5.09-11.362-11.367C91.309,391.792,96.399,386.703,102.67,386.703z"/>
<path style="fill:#FFFFFF;" d="M68.616,394.757h31.177c2.162,0,3.926,1.765,3.926,3.926c0,2.162-1.765,3.926-3.926,3.926H68.616
	c-2.157,0-3.926-1.765-3.926-3.926C64.691,396.522,66.455,394.757,68.616,394.757z"/>
<circle style="fill:#FAD24D;" cx="412.983" cy="401.431" r="99.027"/>
<path style="fill:#FFFFFF;" d="M412.982,312.973c48.853,0,88.459,39.606,88.459,88.458s-39.606,88.459-88.459,88.459
	s-88.458-39.606-88.458-88.459C324.524,352.574,364.13,312.973,412.982,312.973z"/>
<path style="fill:#21D0C3;" d="M378.546,437.624h2.605l15.237-8.309l2.48-9.695c-3.63-3.663-7.381-9.871-10.794-17.496
	c-0.277,0.046-0.554,0.065-0.85,0.065c-4.027,0-8.013-4.383-8.915-9.792c-0.702-4.231,0.702-7.838,3.275-9.205
	c-3.408-17.38-5.672-44.068,24.263-50.659c17.953-3.953,24.368,9.903,25.149,11.423c10.868-6.097,17.773,3.048,19.547,7.885
	c3.21,8.748,2.166,25.015,0.527,32.207c1.801,1.723,2.684,4.818,2.097,8.351c-0.887,5.321-4.762,9.644-8.716,9.787
	c-3.196,7.025-7.491,13.053-11.847,17.431l2.48,9.699h0.213l14.817,8.309h2.818c13.061,0,24.539,6.869,30.724,17.007
	c-16.147,21.417-41.79,35.264-70.676,35.264c-26.964,0-51.107-12.068-67.328-31.089c5.349-12.397,18.101-21.177,32.895-21.177
	L378.546,437.624L378.546,437.624z"/>
<g>
</g>
<g>
</g>
<g>
</g>
<g>
</g>
<g>
</g>
<g>
</g>
<g>
</g>
<g>
</g>
<g>
</g>
<g>
</g>
<g>
</g>
<g>
</g>
<g>
</g>
<g>
</g>
<g>
</g>
</svg>
